<?xml version="1.0" encoding="iso-8859-1"?>
<!-- Generator: Adobe Illustrator 19.0.0, SVG Export Plug-In . SVG Version: 6.00 Build 0)  -->
<svg version="1.1" id="Layer_1" xmlns="http://www.w3.org/2000/svg" xmlns:xlink="http://www.w3.org/1999/xlink" x="0px" y="0px"
	 viewBox="0 0 298.994 298.994" style="enable-background:new 0 0 298.994 298.994;" xml:space="preserve">
<g id="XMLID_1162_">
	<g>
		<g>
			<circle cx="49.774" cy="46.77" r="20.242"/>
			<path d="M75.908,73.465c-6.511,0-45.899,0-52.434,0c-12.681,0-23.05,10.317-23.113,22.998L0,168.216
				c-0.027,5.394,4.324,9.789,9.718,9.816c0.017,0,0.033,0,0.05,0c5.371,0,9.739-4.341,9.766-9.718l0.361-71.755
				c0.005-1.04,0.851-1.879,1.891-1.877c1.04,0.003,1.881,0.846,1.881,1.886l0.005,164.177c0,6.473,5.247,11.72,11.72,11.72
				s11.72-5.247,11.72-11.72v-93.682h5.06v93.682c0,6.473,5.247,11.72,11.72,11.72s11.72-5.247,11.72-11.72
				c0-85.478-0.207-81.226-0.213-164.275c0-1.129,0.915-2.045,2.044-2.045c1.129,0,2.044,0.915,2.045,2.044
				c0,0.029-0.001,0.058-0.001,0.088l0.361,71.754c0.027,5.377,4.394,9.718,9.766,9.718c0.016,0,0.034,0,0.05,0
				c5.394-0.027,9.745-4.422,9.718-9.816l-0.361-71.754C98.958,83.781,88.59,73.465,75.908,73.465z"/>
			<path d="M189.203,253.101c-0.957,6.189,3.284,11.983,9.474,12.94c6.204,0.957,11.985-3.296,12.94-9.474l6.243-40.366h-22.95
				L189.203,253.101z"/>
			<path d="M160.3,216.201h-22.95l6.243,40.366c0.866,5.602,5.695,9.609,11.193,9.609c7.003,0,12.278-6.238,11.221-13.075
				L160.3,216.201z"/>
			<path d="M177.646,100.806c10.824,0,19.586-8.77,19.586-19.586c0-10.816-8.768-19.586-19.586-19.586
				c-10.817,0-19.586,8.768-19.586,19.586C158.061,92.062,166.851,100.806,177.646,100.806z"/>
			<path d="M294.856,185.995h-4.984c2.753,0,4.984-2.231,4.984-4.984c0-16.186,0-22.665,0-30.01c0-2.753-2.231-4.984-4.984-4.984
				H283.4v-9.758c0-1.851-1.501-3.352-3.352-3.352h-22.459c-1.851,0-3.352,1.501-3.352,3.352v9.758h-6.471
				c-2.534,0-4.622,1.893-4.938,4.341c-0.072,0.556-0.046-1.395-0.046,30.653c0,2.753,2.231,4.984,4.984,4.984h-45.195v-11.876
				l27.674-12.19c4.661-2.053,6.857-7.431,4.964-12.16c-2.385-5.97-8.35-19.569-13.703-30.575
				c-3.587-7.378-11.208-12.145-19.414-12.145c-22.081,0-27.606,0-51.844,0c-2.137,0-4.209,0.723-5.881,2.053l-28.165,22.394
				c-1.716,1.365-2.905,3.284-3.361,5.428l-7.806,36.638c-1.245,5.844,3.203,11.421,9.252,11.421c4.453,0,8.307-3.137,9.233-7.483
				l7.099-33.321l21.896-17.41v59.225h-45.252c-2.285,0-4.138,1.853-4.138,4.138v14.96c0,2.285,1.853,4.138,4.138,4.138h4.583v6.971
				v52.127c0,2.285,1.852,4.138,4.138,4.138h14.959c2.285,0,4.138-1.853,4.138-4.138v-52.127v-6.971h130.972v6.971v52.127
				c0,2.285,1.853,4.138,4.138,4.138h14.959c2.285,0,4.138-1.853,4.138-4.138v-52.127v-6.971h5.565c2.285,0,4.137-1.851,4.138-4.136
				c0-0.001,0-0.001,0-0.003v-14.96c0.001,0.001,0.001-0.001,0.001-0.001C298.992,187.846,297.14,185.995,294.856,185.995z
				 M202.571,127.907c0-0.475,0.328-0.888,0.792-0.995c0.464-0.107,0.939,0.12,1.147,0.548c3.23,6.641,6.822,14.545,9.598,20.924
				l-11.537,5.082V127.907z M276.696,146.016h-15.755v-6.406h15.755V146.016z"/>
		</g>
	</g>
</g>
<g>
</g>
<g>
</g>
<g>
</g>
<g>
</g>
<g>
</g>
<g>
</g>
<g>
</g>
<g>
</g>
<g>
</g>
<g>
</g>
<g>
</g>
<g>
</g>
<g>
</g>
<g>
</g>
<g>
</g>
</svg>
