<?xml version="1.0" encoding="utf-8"?>
<!-- Uploaded to SVGRepo https://www.svgrepo.com -->
<svg version="1.1" id="Layer_1" xmlns="http://www.w3.org/2000/svg" xmlns:xlink="http://www.w3.org/1999/xlink" x="0px" y="0px"
	 width="256px" height="253px" viewBox="0 0 256 253" enable-background="new 0 0 256 253" xml:space="preserve">
<path d="M99.195,210.962c0,9.141-7.397,16.537-16.537,16.537s-16.537-7.397-16.537-16.537c0-9.141,7.397-16.537,16.537-16.537
	S99.195,201.821,99.195,210.962z M89.253,210.962c0-3.615-2.98-6.595-6.595-6.595s-6.595,2.98-6.595,6.595
	c0,3.615,2.98,6.595,6.595,6.595S89.253,214.577,89.253,210.962z M190.059,210.962c0,9.141-7.397,16.537-16.537,16.537
	c-9.141,0-16.537-7.397-16.537-16.537c0-9.141,7.397-16.537,16.537-16.537C182.663,194.425,190.059,201.821,190.059,210.962z
	 M179.857,210.962c0-3.472-2.862-6.334-6.334-6.334s-6.334,2.862-6.334,6.334s2.862,6.334,6.334,6.334
	S179.857,214.434,179.857,210.962z M203.65,196.229h-3.488l0,0v-16.898c0-5.292-4.27-9.561-9.622-9.561h-23.453
	c-0.361,0-0.722-0.18-0.962-0.421l-26.76-28.865c-1.203-1.203-2.886-1.924-4.63-1.984H82.718c-4.51,0-8.359,3.067-9.381,7.457
	l-5.232,22.791c-0.12,0.601-0.661,1.022-1.323,1.022l0,0c-6.014,0-10.945,4.871-10.945,10.945v14.132
	c0,0.722-0.601,1.323-1.323,1.323H52.35c-0.722,0-1.323,0.601-1.323,1.323v4.51c0,3.368,2.766,6.134,6.134,6.134h2.466
	c0.661,0,1.203-0.481,1.323-1.082c1.804-10.343,10.884-18.281,21.769-18.281s19.905,7.878,21.709,18.221
	c0.12,0.661,0.661,1.082,1.323,1.082h44.741c0.661,0,1.203-0.481,1.323-1.082c1.804-10.343,10.824-18.221,21.709-18.221
	c10.884,0,19.905,7.878,21.709,18.221c0.12,0.661,0.661,1.082,1.323,1.082h2.285c3.428,0,6.134-2.766,6.134-6.134v-4.45
	C204.973,196.83,204.372,196.229,203.65,196.229z M106.351,168.386c0,0.722-0.601,1.323-1.323,1.323H76.765
	c-0.842,0-1.503-0.782-1.323-1.624l4.63-20.566c0.241-1.082,1.082-1.864,2.225-1.864h22.731c0.722,0,1.323,0.601,1.323,1.323
	V168.386z M153.257,169.769h-38.366c-0.722,0-1.323-0.601-1.323-1.323v-21.408c0-0.722,0.601-1.323,1.323-1.323h19.003
	c0.361,0,0.722,0.18,1.022,0.421l19.364,21.348C155.001,168.386,154.399,169.769,153.257,169.769z M2,69
	c0,13.678,9.625,25.302,22,29.576V233H2v18h252v-18h-22V98.554c12.89-3.945,21.699-15.396,22-29.554v-8H2V69z M65.29,68.346
	c0,6.477,6.755,31.47,31.727,31.47c21.689,0,31.202-19.615,31.202-31.47c0,11.052,7.41,31.447,31.464,31.447
	c21.733,0,31.363-20.999,31.363-31.447c0,14.425,9.726,26.416,22.954,30.154V233H42V98.594C55.402,94.966,65.29,82.895,65.29,68.346
	z M222.832,22H223V2H34v20L2,54h252L222.832,22z"/>
</svg>
