<svg width="510.00000000000006" height="503" xmlns="http://www.w3.org/2000/svg">

 <g>
  <title>Layer 1</title>
  <polygon transform="translate(0 -1.5625) matrix(1 0 0 1 -165.828 -46.2355)" id="imagebot_3" points="312.368,97.275 308.319,97.069 308.132,100.695 312.187,100.905  " fill="none"/>
  <polygon transform="translate(0 -1.5625) matrix(1 0 0 1 -165.828 -46.2355)" id="imagebot_4" points="311.775,109.008 307.702,108.798 307.515,112.422 311.585,112.637  " fill="none"/>
  <polygon transform="translate(0 -1.5625) matrix(1 0 0 1 -165.828 -46.2355)" id="imagebot_6" points="312.07,103.142 308.011,102.932 307.823,106.562 311.889,106.769  " fill="none"/>
  <polygon transform="translate(0 -1.5625) matrix(1 0 0 1 -165.828 -46.2355)" id="imagebot_7" points="311.475,114.871 307.398,114.659 307.205,118.289 311.29,118.501  " fill="none"/>
  <polygon transform="translate(0 -1.5625) matrix(1 0 0 1 -165.828 -46.2355)" id="imagebot_8" points="310.879,126.601 306.781,126.391 306.593,130.015 310.691,130.23  " fill="none"/>
  <polygon transform="translate(0 -1.5625) matrix(1 0 0 1 -165.828 -46.2355)" id="imagebot_9" points="311.177,120.74 307.09,120.525 306.899,124.152 310.992,124.367  " fill="none"/>
  <rect id="imagebot_10" height="3.632" width="4.041" fill="none" transform="translate(0 -1.5625) matrix(0.9986 0.052 -0.052 0.9986 -160.874 -62.2705)" y="85.441" x="308.835"/>
  <rect transform="translate(0 -1.5625) matrix(1 0 0 1 -165.828 -46.2355)" id="imagebot_11" height="12.201" width="7.863" fill="none" y="504.306" x="564.589"/>
  <polygon transform="translate(0 -1.5625) matrix(1 0 0 1 -165.828 -46.2355)" id="imagebot_12" points="313.86,67.956 309.858,67.743 309.666,71.373 313.676,71.583  " fill="none"/>
  <polygon transform="translate(0 -1.5625) matrix(1 0 0 1 -165.828 -46.2355)" id="imagebot_13" points="312.666,91.412 308.626,91.2 308.436,94.829 312.484,95.039  " fill="none"/>
  <polygon transform="translate(0 -1.5625) matrix(1 0 0 1 -165.828 -46.2355)" id="imagebot_14" points="313.262,79.683 309.241,79.473 309.054,83.097 313.08,83.309  " fill="none"/>
  <polygon transform="translate(0 -1.5625) matrix(1 0 0 1 -165.828 -46.2355)" id="imagebot_15" points="306.403,214.583 302.17,214.359 301.981,217.986 306.218,218.212  " fill="none"/>
  <rect transform="translate(0 -1.5625) matrix(1 0 0 1 -165.828 -46.2355)" id="imagebot_16" height="15.455" width="7.866" fill="none" y="516.237" x="490.667"/>
  <polygon transform="translate(0 -1.5625) matrix(1 0 0 1 -165.828 -46.2355)" id="imagebot_17" points="307.001,202.853 302.79,202.629 302.6,206.256 306.813,206.479  " fill="none"/>
  <polygon transform="translate(0 -1.5625) matrix(1 0 0 1 -165.828 -46.2355)" id="imagebot_18" points="309.387,155.929 305.247,155.711 305.06,159.341 309.202,159.559  " fill="none"/>
  <polygon transform="translate(0 -1.5625) matrix(1 0 0 1 -165.828 -46.2355)" id="imagebot_19" points="309.086,161.795 304.938,161.577 304.751,165.204 308.904,165.422  " fill="none"/>
  <polygon transform="translate(0 -1.5625) matrix(1 0 0 1 -165.828 -46.2355)" id="imagebot_20" points="309.685,150.063 305.554,149.848 305.363,153.475 309.5,153.692  " fill="none"/>
  <polygon transform="translate(0 -1.5625) matrix(1 0 0 1 -165.828 -46.2355)" id="imagebot_21" points="310.581,132.467 306.475,132.252 306.284,135.876 310.396,136.094  " fill="none"/>
  <polygon transform="translate(0 -1.5625) matrix(1 0 0 1 -165.828 -46.2355)" id="imagebot_22" points="306.703,208.719 302.479,208.496 302.291,212.125 306.516,212.343  " fill="none"/>
  <polygon transform="translate(0 -1.5625) matrix(1 0 0 1 -165.828 -46.2355)" id="imagebot_23" points="309.98,144.197 305.862,143.979 305.672,147.608 309.804,147.826  " fill="none"/>
  <polygon transform="translate(0 -1.5625) matrix(1 0 0 1 -165.828 -46.2355)" id="imagebot_24" points="310.283,138.333 306.169,138.115 305.979,141.745 310.099,141.96  " fill="none"/>
  <polygon transform="translate(0 -1.5625) matrix(1 0 0 1 -165.828 -46.2355)" id="imagebot_25" points="308.788,167.662 304.635,167.443 304.439,171.067 308.606,171.288  " fill="none"/>
  <polygon transform="translate(0 -1.5625) matrix(1 0 0 1 -165.828 -46.2355)" id="imagebot_26" points="307.597,191.124 303.402,190.9 303.215,194.527 307.415,194.75  " fill="none"/>
  <polygon transform="translate(0 -1.5625) matrix(1 0 0 1 -165.828 -46.2355)" id="imagebot_27" points="308.49,173.522 304.326,173.307 304.133,176.937 308.309,177.149  " fill="none"/>
  <polygon transform="translate(0 -1.5625) matrix(1 0 0 1 -165.828 -46.2355)" id="imagebot_28" points="309.55,73.612 309.362,77.239 313.342,77.444 313.543,73.82  " fill="none"/>
  <polygon transform="translate(0 -1.5625) matrix(1 0 0 1 -165.828 -46.2355)" id="imagebot_29" points="307.299,196.987 303.096,196.766 302.903,200.393 307.114,200.613  " fill="none"/>
  <polygon transform="translate(0 -1.5625) matrix(1 0 0 1 -165.828 -46.2355)" id="imagebot_30" points="308.192,179.388 304.018,179.167 303.83,182.797 308.008,183.015  " fill="none"/>
  <polygon transform="translate(0 -1.5625) matrix(1 0 0 1 -165.828 -46.2355)" id="imagebot_31" points="307.895,185.254 303.708,185.037 303.521,188.663 307.713,188.884  " fill="none"/>
  <polygon transform="translate(0 -1.5625) matrix(1 0 0 1 -165.828 -46.2355)" id="imagebot_32" points="306.107,220.443 301.863,220.228 301.673,223.852 305.923,224.073  " fill="none"/>
  <path transform="translate(0 -1.5625) matrix(1 0 0 1 -165.828 -46.2355)" id="imagebot_33" d="M301.37,229.715L301.558,226.089L305.81,226.312L305.719,228.085L343.573,210.19L362.473,219.127L355.288,77.851L354.913,77.851C352.177,68.951 316.544,68.951 313.81,77.851L313.32,77.851L313.341,77.444L309.362,77.238L309.55,73.612L313.543,73.82L313.626,72.321C313.626,62.286 352.389,61.955 354.957,71.327L354.681,65.931C354.681,54.759 314.512,54.69 313.985,65.719L309.975,65.51L310.058,63.949L306.859,63.781L298.058,231.707L302.181,229.759L301.37,229.715zM309.858,67.743L313.86,67.955L313.675,71.582L309.665,71.372L309.858,67.743zM309.241,79.473L313.262,79.683L313.08,83.309L309.054,83.097L309.241,79.473zM308.932,85.339L312.967,85.549L312.782,89.173L308.744,88.966L308.932,85.339zM308.626,91.2L312.666,91.412L312.484,95.038L308.435,94.829L308.626,91.2zM308.319,97.069L312.368,97.276L312.186,100.905L308.131,100.696L308.319,97.069zM308.011,102.932L312.071,103.141L311.889,106.768L307.824,106.561L308.011,102.932zM307.702,108.798L311.775,109.007L311.585,112.636L307.515,112.421L307.702,108.798zM307.398,114.659L311.474,114.871L311.289,118.501L307.204,118.289L307.398,114.659zM307.09,120.525L311.177,120.74L310.992,124.366L306.899,124.151L307.09,120.525zM306.781,126.391L310.879,126.601L310.691,130.23L306.592,130.015L306.781,126.391zM306.475,132.252L310.581,132.467L310.396,136.093L306.284,135.875L306.475,132.252zM306.169,138.115L310.283,138.333L310.098,141.959L305.978,141.744L306.169,138.115zM305.862,143.979L309.98,144.197L309.803,147.826L305.671,147.608L305.862,143.979zM305.554,149.848L309.685,150.063L309.5,153.692L305.363,153.474L305.554,149.848zM305.247,155.711L309.387,155.929L309.202,159.558L305.059,159.34L305.247,155.711zM304.938,161.577L309.085,161.795L308.903,165.421L304.75,165.203L304.938,161.577zM304.635,167.443L308.788,167.661L308.606,171.287L304.439,171.066L304.635,167.443zM304.326,173.307L308.49,173.522L308.308,177.149L304.132,176.937L304.326,173.307zM304.018,179.167L308.193,179.388L308.008,183.015L303.83,182.797L304.018,179.167zM303.708,185.037L307.895,185.255L307.713,188.884L303.521,188.663L303.708,185.037zM303.402,190.9L307.596,191.124L307.414,194.75L303.214,194.527L303.402,190.9zM303.096,196.766L307.299,196.987L307.114,200.613L302.903,200.393L303.096,196.766zM302.79,202.629L307.001,202.853L306.813,206.479L302.599,206.256L302.79,202.629zM302.479,208.496L306.704,208.72L306.516,212.344L302.291,212.126L302.479,208.496zM302.17,214.359L306.403,214.582L306.217,218.211L301.981,217.985L302.17,214.359zM301.863,220.228L306.107,220.443L305.922,224.072L301.672,223.851L301.863,220.228z"/>
  <path transform="translate(0 -1.5625) matrix(1 0 0 1 -165.828 -46.2355)" id="imagebot_34" d="M424.306,61.875L424.562,66.485L423.986,55.132C423.986,43.27 381.037,43.27 381.037,55.132L380.4,67.65L380.716,61.875C380.716,50.922 424.306,50.922 424.306,61.875z"/>
  <path transform="translate(0 -1.5625) matrix(1 0 0 1 -165.828 -46.2355)" id="imagebot_35" d="M286.647,149.508L286.344,149.508C284.678,144.058 262.934,144.058 261.263,149.508L260.965,149.508L261.153,146.121C261.153,139.764 286.46,139.764 286.46,146.121L286.634,149.231L286.276,142.208C286.276,135.319 261.336,135.319 261.336,142.208L255.768,251.701L290.996,235.047L286.647,149.508z"/>
  <path transform="translate(-15.625 -1.5625) matrix(1 0 0 1 -150.203 -47.798)" id="imagebot_38" d="M408.615,240.947L432.763,227.787L424.624,67.704L424.105,67.704C421.235,58.319 383.782,58.319 380.908,67.704L380.395,67.704L372.452,223.848L408.615,240.947z"/>
  <path transform="translate(0 164.765) matrix(1 0 0 1 -165.828 -212.563)" id="imagebot_39" d="M579.325,350.042L579.325,330.071L522.346,312.276L522.346,251.627L442.321,225.04L408.702,243.357L343.567,212.563L237.066,262.912L237.066,296.746L186.667,325.709L186.667,350.04L165.828,350.04L165.828,488.423L676.063,488.423L676.063,479.95L676.063,350.04L579.325,350.04L579.325,350.042zM501.661,252.234L514.071,256.28L514.071,278.641L501.661,274.772L501.661,252.234zM476.822,244.493L489.244,248.539L489.244,270.9L476.822,267.031L476.822,244.493zM451.99,236.751L464.406,240.8L464.406,263.159L451.99,259.289L451.99,236.751zM442.519,330.877L442.519,350.042L381.726,350.042L381.726,324.58L442.321,290.12L442.321,329.473L442.321,330.888L442.519,330.877zM409.9,244.895L442.32,226.458L442.32,287.458L409.9,305.122L409.9,244.895zM240.94,266.788L343.566,216.438L343.566,350.042L240.94,350.042L240.94,266.788zM188.895,327.937L236.999,300.338L236.999,350.042L227.831,350.042L227.77,317.318L198.58,333.932L198.58,350.041L188.908,350.041L188.895,327.937zM671.827,479.952L671.827,484.188L170.063,484.188L170.063,354.277L671.827,354.277L671.827,479.952z"/>
  <polygon transform="translate(0 -1.5625) matrix(1 0 0 1 -165.828 -46.2355)" id="imagebot_40" points="279.102,284.292 304.58,271.656 305.567,243.166 280.078,256.101  "/>
  <polygon transform="translate(0 -1.5625) matrix(1 0 0 1 -165.828 -46.2355)" id="imagebot_41" points="312.06,267.949 337.537,255.312 338.524,226.822 313.036,239.76  "/>
  <polygon transform="translate(0 -1.5625) matrix(1 0 0 1 -165.828 -46.2355)" id="imagebot_42" points="244.716,301.59 270.193,288.951 271.181,260.464 245.692,273.399  "/>
  <polygon transform="translate(0 -1.5625) matrix(1 0 0 1 -165.828 -46.2355)" id="imagebot_43" points="414.137,268.586 437.494,256.642 437.494,234.104 414.137,246.225  "/>
  <polygon transform="translate(0 -1.5625) matrix(1 0 0 1 -165.828 -46.2355)" id="imagebot_44" points="385.363,343.671 400.192,335.664 400.192,318.774 385.363,326.957  "/>
  <polygon transform="translate(0 -1.5625) matrix(1 0 0 1 -165.828 -46.2355)" id="imagebot_45" points="405.369,332.725 420.199,324.718 420.199,307.828 405.369,316.011  "/>
  <polygon transform="translate(0 -1.5625) matrix(1 0 0 1 -165.828 -46.2355)" id="imagebot_46" points="424.554,322.371 439.381,314.364 439.381,297.477 424.554,305.658  "/>
  <polygon transform="translate(0 -1.5625) matrix(1 0 0 1 -165.828 -46.2355)" id="imagebot_52" points="464.406,240.8 451.99,236.751 451.99,259.289 464.406,263.159  " fill="#FFFFFF"/>
  <path transform="translate(0 -1.5625) matrix(1 0 0 1 -165.828 -46.2355)" id="imagebot_53" d="M442.32,226.458L409.9,244.895L409.9,305.123L442.32,287.459L442.32,226.458zM437.494,256.642L414.137,268.586L414.137,246.225L437.494,234.104L437.494,256.642z" fill="#FFFFFF"/>
  <path transform="translate(0 -1.5625) matrix(1 0 0 1 -165.828 -46.2355)" id="imagebot_56" d="M442.32,329.473L442.32,290.12L381.725,324.58L381.725,350.042L442.518,350.042L442.518,330.877L442.32,330.888L442.32,329.473zM400.192,335.664L385.363,343.671L385.363,326.957L400.192,318.774L400.192,335.664zM420.199,324.718L405.369,332.725L405.369,316.011L420.199,307.828L420.199,324.718zM439.381,314.364L424.554,322.371L424.554,305.658L439.381,297.476L439.381,314.364z" fill="#FFFFFF"/>
  <polygon transform="translate(0 -1.5625) matrix(1 0 0 1 -165.828 -46.2355)" id="imagebot_57" points="198.58,333.933 227.771,317.318 227.831,350.042 236.999,350.042 236.999,300.338 188.895,327.937    188.908,350.042 198.58,350.042  " fill="#FFFFFF"/>
  <path transform="translate(0 -1.5625) matrix(1 0 0 1 -165.828 -46.2355)" id="imagebot_58" d="M343.566,216.438L240.94,266.788L240.94,350.042L343.566,350.042L343.566,216.438zM270.193,288.951L244.715,301.59L245.692,273.399L271.18,260.464L270.193,288.951zM304.58,271.656L279.101,284.293L280.078,256.102L305.567,243.167L304.58,271.656zM337.537,255.312L312.059,267.949L313.036,239.76L338.524,226.822L337.537,255.312z" fill="#FFFFFF"/>
  <polygon transform="translate(0 -1.5625) matrix(1 0 0 1 -165.828 -46.2355)" id="imagebot_63" points="514.071,256.28 501.661,252.234 501.661,274.772 514.071,278.642  " fill="#FFFFFF"/>
  <path transform="translate(0 -1.5625) matrix(1 0 0 1 -165.828 -46.2355)" id="imagebot_64" d="M313.626,72.321L313.543,73.82L313.342,77.444L313.321,77.851L313.811,77.851C316.544,68.951 352.177,68.951 354.914,77.851L355.289,77.851L355.401,77.851L355.095,72.321C355.095,71.978 355.045,71.647 354.957,71.327C352.389,61.956 313.626,62.287 313.626,72.321z" fill="#FFFFFF"/>
  <path transform="translate(0 -1.5625) matrix(1 0 0 1 -165.828 -46.2355)" id="imagebot_65" d="M424.106,67.705L424.625,67.705L424.631,67.705L424.562,66.485L424.306,61.875C424.306,50.923 380.716,50.923 380.716,61.875L380.4,67.65L380.397,67.705L380.91,67.705C383.783,58.319 421.236,58.319 424.106,67.705z" fill="#FFFFFF"/>
  <path transform="translate(0 -1.5625) matrix(1 0 0 1 -165.828 -46.2355)" id="imagebot_66" d="M261.153,146.122L260.965,149.509L261.263,149.509C262.934,144.059 284.678,144.059 286.344,149.509L286.647,149.509L286.633,149.232L286.459,146.122C286.46,139.765 261.153,139.765 261.153,146.122z" fill="#FFFFFF"/>
  <polygon transform="translate(0 -1.5625) matrix(1 0 0 1 -165.828 -46.2355)" id="imagebot_70" points="489.244,248.539 476.822,244.493 476.822,267.031 489.244,270.9  " fill="#FFFFFF"/>
 </g>
</svg>