<?xml version="1.0" encoding="UTF-8"?>
<svg viewBox="0 0 1538.5 1870.5" xmlns="http://www.w3.org/2000/svg">
 <path d="m745.5 1.5h6.5l28 14.5q28 14.5 37 19t61.25 29.25 54 25 27.75 11.75 40 17 40.5 15 33.5 12 17.5 6 27 8.5 42 12 49.5 12.5 31 7 44.5 8.5 47 8.5 46.5 7.5 37.5 6 36 7 35.75 7.25l0.25 0.25-1.5 74.5q-1.5 74.5-7.5 192.5t-9.5 165-8 80.5-10.5 63.5-13 60.5-12.5 53.5-13 49.5-9 32-4.5 14-7 21-12.5 36-14 37.5-13.5 33.5-20.5 47-15 32-18.25 32.75-19 33.5-15.5 26.5-16 27-11.5 18-12.5 19-11 16-12 17-9 13-9.5 13.5-12 16.5-12.5 17-11.5 15-20.25 23.75-36.5 40-37 38.5-21.25 20.25-24.5 21.5-23.5 21-21 18.5-22 19-12 10-18.75 15.75-18.25 14.75-12 8.5-21 13-20 12.5-10.75 6.75-12.5 8-9.5 6.5-13 7-24 11.5-19.5 8.5l-5.5 2-6-1.5q-6-1.5-13-5t-23.5-12-19-10.5-12.75-8.75-15.5-10-20.5-12.5-21-13-12-8.5-14.25-11.25-21.25-17.75-23-19.5-28.5-25-24-21-23-20-19.75-17.75-17.75-17.75-22-22.5-27.5-30-25.5-28.5-12.5-15.5-13-16.5-9.5-13-10-14-9.5-13-7.25-10.25-8.25-11.75-9-13-10-15-9.5-14.5-10.5-16.5-9.5-15.5-12.5-21.5-13.5-22.5-16.25-28.75-19.5-35.5-11.5-22.5-14-31.5-9-21.5-9-23-14-35.5-14-39.5-18-56.5-20-73-15.5-64-12.5-61-9.5-52.5-6.5-76.5-6.5-96.5-3.5-69-5.5-119.5-3.5-117.5v-34.5l3.25-1.75q3.25-1.75 17.75-4.25t40-6.5 77.5-13 74.5-13 59.5-12.5 64-16 46.5-14 30.5-10 21-7 40-15 56.25-23.25 28-12 25.25-11.25 42.5-20 37.5-18 46-23.5l27.5-14.5h6.5z" fill-rule="evenodd" stroke="#000" stroke-width="2"/>
</svg>
