<?xml version="1.0" encoding="iso-8859-1"?>
<!-- Generator: Adobe Illustrator 19.0.0, SVG Export Plug-In . SVG Version: 6.00 Build 0)  -->
<svg version="1.1" id="Layer_1" xmlns="http://www.w3.org/2000/svg" xmlns:xlink="http://www.w3.org/1999/xlink" x="0px" y="0px"
	 viewBox="0 0 512.009 512.009" style="enable-background:new 0 0 512.009 512.009;" xml:space="preserve">
<g>
	<g>
		<g>
			<path d="M128.004,204.8c-4.719,0-8.533,3.823-8.533,8.533V230.4c0,11.469,7.586,21.205,17.997,24.448
				c2.62,17.937,11.11,68.736,26.103,91.221l1.348,2.039c10.957,16.614,29.295,44.424,91.085,44.424s80.128-27.81,91.085-44.424
				l1.348-2.039c14.993-22.485,23.484-73.284,26.104-91.221c4.651-1.451,8.67-4.233,11.776-7.851
				c3.558-1.015,6.221-4.164,6.221-8.064v-25.6c0-4.71-3.814-8.533-8.533-8.533s-8.533,3.823-8.533,8.533V230.4
				c0,4.702-3.823,8.533-8.533,8.533c-4.301,0-7.936,3.208-8.465,7.475c-2.313,18.432-11.153,70.571-24.235,90.189l-1.4,2.116
				c-10.223,15.514-24.235,36.753-76.834,36.753s-66.611-21.239-76.834-36.753l-1.4-2.116
				c-13.065-19.601-21.922-71.748-24.235-90.189c-0.529-4.267-4.164-7.475-8.465-7.475c-4.71,0-8.533-3.831-8.533-8.533v-17.067
				C136.538,208.623,132.723,204.8,128.004,204.8z"/>
			<path d="M85.773,179.2c0,4.71,3.814,8.533,8.533,8.533h323.831c4.719,0,8.533-3.823,8.533-8.533v-34.133
				c0-1.161-0.239-2.27-0.657-3.285c-0.154-0.341-0.427-0.606-0.606-0.922c-0.358-0.614-0.691-1.254-1.186-1.758
				c-0.299-0.307-0.7-0.486-1.041-0.742c-0.529-0.393-1.007-0.819-1.621-1.084c-0.41-0.188-0.896-0.205-1.357-0.324
				c-0.563-0.145-1.109-0.384-1.715-0.41c-18.569-59.034-67.9-103.552-128.35-115.866v-6.409c0-3.328-1.946-6.357-4.966-7.748
				C284.599,6.246,270.852,0,256.004,0c-14.848,0-28.595,6.246-29.167,6.519c-3.021,1.391-4.966,4.42-4.966,7.748v6.409
				C161.412,32.998,112.073,77.517,93.513,136.567c-0.154,0.017-0.265,0.102-0.418,0.128c-4.335,0.401-7.757,3.934-7.757,8.371
				c0,0.76,0.247,1.442,0.435,2.15V179.2z M256.004,170.667c-18.825,0-34.133-15.309-34.133-34.133S237.18,102.4,256.004,102.4
				s34.133,15.309,34.133,34.133S274.829,170.667,256.004,170.667z M102.839,153.6h33.698c4.719,0,8.533-3.823,8.533-8.533
				c0-4.71-3.814-8.533-8.533-8.533h-25.02c17.493-49.468,59.29-86.724,110.353-98.364v21.564c0,4.71,3.814,8.533,8.533,8.533
				s8.533-3.823,8.533-8.533V20.139c4.233-1.399,10.633-3.072,17.067-3.072c6.443,0,12.843,1.673,17.067,3.072v39.595
				c0,4.71,3.814,8.533,8.533,8.533c4.719,0,8.533-3.823,8.533-8.533V38.17c51.063,11.639,92.86,48.896,110.353,98.364h-25.02
				c-4.719,0-8.533,3.823-8.533,8.533c0,4.71,3.814,8.533,8.533,8.533h34.133v17.067H294.063
				c8.141-9.071,13.141-21.009,13.141-34.133c0-28.237-22.963-51.2-51.2-51.2s-51.2,22.963-51.2,51.2
				c0,13.124,5.001,25.062,13.141,34.133H102.839V153.6z"/>
			<path d="M247.471,324.267c-4.719,0-8.533,3.823-8.533,8.533c0,4.71,3.814,8.533,8.533,8.533h17.067
				c4.719,0,8.533-3.823,8.533-8.533c0-4.71-3.814-8.533-8.533-8.533H247.471z"/>
			<path d="M511.561,500.77l-8.533-25.6c-8.858-26.59-28.407-53.606-98.85-62.319c-0.538-0.213-1.033-0.529-1.63-0.631
				c-1.058-0.188-2.091-0.111-3.081,0.068c-13.943-1.51-29.798-2.338-47.846-2.338h-0.026c-0.572-0.128-1.109-0.35-1.715-0.35
				c-0.239,0-23.842-0.128-38.861-7.629c-4.224-2.108-9.335-0.401-11.452,3.814c-2.108,4.215-0.393,9.344,3.823,11.452
				c11.392,5.683,25.754,7.936,35.49,8.832c-6.75,20.634-28.314,68.864-82.876,68.864c-54.878,0-76.16-47.872-82.867-68.864
				c9.745-0.896,24.098-3.149,35.482-8.832c4.216-2.108,5.931-7.236,3.814-11.452c-2.116-4.216-7.228-5.922-11.443-3.814
				c-15.019,7.501-38.622,7.629-38.861,7.629c-115.388,0-141.798,31.514-153.148,65.57l-8.533,25.6
				c-1.493,4.471,0.922,9.301,5.393,10.795c4.506,1.493,9.293-0.93,10.786-5.402l8.533-25.6
				c5.845-17.51,15.164-45.252,95.514-52.241c2.253,14.336,7.33,49.357,7.33,75.145c0,4.71,3.814,8.533,8.533,8.533
				s8.533-3.823,8.533-8.533c0-26.351-4.847-60.638-7.296-76.262c5.658-0.256,11.546-0.435,17.809-0.503
				C161.933,448.12,186.705,512,256.004,512c69.291,0,94.063-63.625,100.429-84.958c12.834,0.111,24.311,0.683,34.68,1.604
				c-2.492,16.034-7.108,49.118-7.108,74.82c0,4.71,3.814,8.533,8.533,8.533s8.533-3.823,8.533-8.533
				c0-24.61,4.634-57.523,7.023-72.849c65.237,9.566,74.061,35.874,78.754,49.946l8.533,25.6c1.186,3.575,4.514,5.845,8.09,5.845
				c0.896,0,1.801-0.145,2.697-0.444C510.639,510.071,513.054,505.242,511.561,500.77z"/>
			<path d="M252.19,291.029c-14.925,7.467-30.182,7.637-30.319,7.637c-4.719,0-8.533,3.823-8.533,8.533s3.814,8.533,8.533,8.533
				c0.725,0,16.853-0.094,34.133-7.646c17.28,7.552,33.408,7.646,34.133,7.646c4.702,0,8.508-3.806,8.525-8.508
				c0.008-4.702-3.797-8.533-8.499-8.559c-0.162,0-15.42-0.171-30.345-7.637C257.421,289.835,254.588,289.835,252.19,291.029z"/>
			<path d="M230.404,221.867h-34.133c-4.719,0-8.533,3.823-8.533,8.533s3.814,8.533,8.533,8.533h8.533
				c0,4.71,3.814,8.533,8.533,8.533s8.533-3.823,8.533-8.533h8.533c4.719,0,8.533-3.823,8.533-8.533
				S235.123,221.867,230.404,221.867z"/>
			<path d="M290.138,238.933c0,4.71,3.814,8.533,8.533,8.533c4.719,0,8.533-3.823,8.533-8.533h8.533
				c4.719,0,8.533-3.823,8.533-8.533s-3.814-8.533-8.533-8.533h-34.133c-4.719,0-8.533,3.823-8.533,8.533s3.814,8.533,8.533,8.533
				H290.138z"/>
		</g>
	</g>
</g>
<g>
</g>
<g>
</g>
<g>
</g>
<g>
</g>
<g>
</g>
<g>
</g>
<g>
</g>
<g>
</g>
<g>
</g>
<g>
</g>
<g>
</g>
<g>
</g>
<g>
</g>
<g>
</g>
<g>
</g>
</svg>
